<?xml version="1.0" encoding="UTF-8" standalone="no"?>
<svg
   viewBox="0 0 154.42 166.95"
   version="1.1"
   id="svg57"
   sodipodi:docname="pac-man-boca-baixo.svg"
   inkscape:version="1.1 (c68e22c387, 2021-05-23)"
   xmlns:inkscape="http://www.inkscape.org/namespaces/inkscape"
   xmlns:sodipodi="http://sodipodi.sourceforge.net/DTD/sodipodi-0.dtd"
   xmlns="http://www.w3.org/2000/svg"
   xmlns:svg="http://www.w3.org/2000/svg"
   xmlns:rdf="http://www.w3.org/1999/02/22-rdf-syntax-ns#"
   xmlns:cc="http://creativecommons.org/ns#"
   xmlns:dc="http://purl.org/dc/elements/1.1/">
  <sodipodi:namedview
     id="namedview59"
     pagecolor="#ffffff"
     bordercolor="#666666"
     borderopacity="1.0"
     inkscape:pageshadow="2"
     inkscape:pageopacity="0.0"
     inkscape:pagecheckerboard="0"
     showgrid="false"
     inkscape:zoom="1"
     inkscape:cx="-7.5"
     inkscape:cy="86.5"
     inkscape:window-width="1360"
     inkscape:window-height="705"
     inkscape:window-x="-8"
     inkscape:window-y="-8"
     inkscape:window-maximized="1"
     inkscape:current-layer="svg57" />
  <defs
     id="defs37">
    <style
       id="style35">.a{fill:#f2ec18;}.b{fill:#dd370b;}.c,.e{fill:#a52911;}.d{fill:#3d3b1e;}.e{opacity:0.37;}.f{fill:#ccc31f;}.g{fill:#f9f5c0;}</style>
  </defs>
  <title
     id="title39">Element 13</title>
  <polygon
     class="a"
     points="3.31,129.42 2.83,119.67 71.06,85.07 65.7,73.86 8.19,55.82 0.1,45.82 6.24,34.86 35.48,8.05 72.47,0 115.42,11.46 141.74,37.3 153.44,67.03 154.42,96.28 145.15,124.55 123.71,146.97 97.39,162.57 57.42,166.96 21.83,150.38 "
     id="polygon41"
     transform="matrix(-0.06137017,-0.94060334,-0.90207218,0.05529852,157.13486,148.04348)" />
  <polygon
     class="b"
     points="97.99,81.68 71.87,77.49 39.6,90.6 9.35,107.74 2.51,117.23 2.96,125.09 7.83,125.89 27.5,123.37 52.71,112.78 97.99,84.56 "
     id="polygon43"
     transform="matrix(-0.06137017,-0.94060334,-0.90207218,0.05529852,157.13486,148.04348)" />
  <polygon
     class="c"
     points="67.17,79.7 72.88,79.5 97.99,81.68 35.06,51.27 8.84,44.21 0.1,45.82 0,50.61 6.72,60.7 "
     id="polygon45"
     transform="matrix(-0.06137017,-0.94060334,-0.90207218,0.05529852,157.13486,148.04348)" />
  <polygon
     class="d"
     points="76.77,46.53 82.28,43.15 89.59,24.14 87.84,20.24 83.44,20.41 75.1,39.86 75.1,43.19 "
     id="polygon47"
     transform="matrix(-0.06137017,-0.94060334,-0.90207218,0.05529852,157.13486,148.04348)" />
  <polygon
     class="e"
     points="39.6,90.6 35.6,98.35 42.55,104.93 60.83,108.22 97.99,84.56 97.99,81.68 78.74,77.14 65.95,80.07 "
     id="polygon49"
     transform="matrix(-0.06137017,-0.94060334,-0.90207218,0.05529852,157.13486,148.04348)" />
  <polygon
     class="f"
     points="123.71,146.97 145.15,124.55 154.42,97.62 153.44,67.03 140.89,101.64 115.67,119.19 59,129.79 2.7,130.52 21.83,150.38 57.42,166.96 97.39,162.57 "
     id="polygon51"
     transform="matrix(-0.06137017,-0.94060334,-0.90207218,0.05529852,157.13486,148.04348)" />
  <path
     class="g"
     d="m 141.90125,61.840728 c 0.26626,-1.055131 -7.23669,-19.576935 -7.23669,-19.576935 l -22.61389,-21.779004 -25.530893,-5.687635 -13.082552,2.567947 33.675085,8.63531 24.42987,19.212343 z"
     id="path53"
     style="stroke-width:0.922981" />
  <polygon
     class="g"
     points="78.89,29.34 84.74,28.53 80.84,24.14 "
     id="polygon55"
     transform="matrix(-0.06137017,-0.94060334,-0.90207218,0.05529852,157.13486,148.04348)" />
  <metadata
     id="metadata410">
    <rdf:RDF>
      <cc:Work
         rdf:about="">
        <dc:title>Element 13</dc:title>
      </cc:Work>
    </rdf:RDF>
  </metadata>
  <ellipse
     style="fill:#f2ec18;fill-opacity:1"
     id="path34218"
     cx="79.156982"
     cy="98.159058"
     rx="36.638794"
     ry="52.324139" />
  <ellipse
     style="fill:#f2ec18;fill-opacity:1"
     id="path34220"
     cx="52.730991"
     cy="136.35901"
     rx="13.500292"
     ry="16.362402" />
  <ellipse
     style="fill:#f2ec18;fill-opacity:1"
     id="path34222"
     cx="85.675056"
     cy="132.3327"
     rx="25.805931"
     ry="18.509428" />
  <rect
     style="fill:#f2ec18;fill-opacity:1"
     id="rect34246"
     width="73.61927"
     height="5.4667926"
     x="43.092464"
     y="142.17329" />
  <rect
     style="fill:#f2ec18;fill-opacity:1"
     id="rect34248"
     width="7.9777555"
     height="24.272211"
     x="108.73398"
     y="117.90108" />
  <rect
     style="fill:#f2ec18;fill-opacity:1"
     id="rect34250"
     width="67.701523"
     height="4.3590555"
     x="44.158535"
     y="128.99907" />
  <rect
     style="fill:#f2ec18;fill-opacity:1"
     id="rect34252"
     width="23.999054"
     height="20.664034"
     x="92.712677"
     y="126.97606" />
  <rect
     style="fill:#000000;fill-opacity:1"
     id="rect34254"
     width="8.1384344"
     height="9.9919167"
     x="43.092464"
     y="142.17329" />
  <rect
     style="fill:#ffff00;fill-opacity:1;stroke-width:1.05127"
     id="rect34403"
     width="4.6375999"
     height="69.928589"
     x="-80.947464"
     y="83.888542"
     transform="scale(-1,1)" />
  <path
     style="fill:#f2ec18;fill-opacity:1"
     id="path41022"
     d="m 48.038408,150.14807 c 2.592866,0.8255 5.045566,2.03977 7.45657,3.28854 2.033826,0.95844 3.982343,2.17238 6.147868,2.82908 0.636117,0.1929 1.288723,0.32652 1.933085,0.48979 3.538432,0.70139 7.13061,1.1176 10.728976,1.34707 2.803933,0.16005 5.615393,0.0779 8.422319,0.0513 3.159916,-0.019 6.319638,-0.0121 9.479357,0.0258 2.081548,0.0319 4.163349,0.0235 6.245023,0.0132 2.041234,0.0498 4.068564,0.0252 6.093654,-0.24336 5.51091,-1.32517 11.30015,-6.02263 15.13055,-8.32798 0.49559,-0.29828 1.27823,-1.44725 1.67303,-1.91398 1.04633,-1.37601 1.4081,-3.07679 2.00288,-4.65994 0.17925,-0.84052 0.38432,-0.97025 -0.43663,-1.75207 -1.2437,-1.18441 -3.11446,-0.26495 -4.43146,0.20632 -2.85699,1.28125 -5.88787,1.95102 -8.97367,2.36752 -2.59656,0.26819 -5.21028,0.28242 -7.81796,0.27919 -1.934661,-0.0802 -3.858655,0.18572 -5.75427,0.54687 -2.214408,0.4117 -4.425232,0.83914 -6.65835,1.13715 -2.070254,0.26573 -4.159755,0.29678 -6.243748,0.32232 -2.315169,0.0212 -4.630275,-0.008 -6.945439,0.007 -3.640954,0.10762 -7.283376,0.0254 -10.92485,0.0586 -3.531624,-0.0242 -7.071836,0.10053 -10.5998,-0.0988 -1.661693,-0.1983 -2.0988,-0.36547 -2.291325,-1.99238 -0.119036,-1.63164 -0.393655,-3.24604 -0.521248,-4.87911 -0.08368,-1.49624 -0.113713,-2.99574 -0.132225,-4.49408 -0.01575,-1.87417 -0.104484,-3.7176 0.313408,-5.55354 0.243009,-0.83728 0.358611,-1.86477 0.910325,-2.58487 0.09084,-0.11856 0.501672,-0.32422 0.373425,-0.24766 -12.805341,7.64479 -9.876423,11.61342 -12.982365,6.95798 0.647784,2.3213 1.468242,4.58146 2.418473,6.79445 1.008367,2.32213 2.305546,4.49453 3.946622,6.42098 1.347755,1.59516 3.047905,2.63057 4.914558,3.50249 3.148345,1.05978 6.487375,1.37664 9.767623,1.78796 2.228787,0.44669 -0.111296,0.11318 0.339712,-0.22323 3.876777,-2.89168 8.084196,-5.32594 11.925688,-8.26434 0.336712,-0.25755 -0.843667,0.0869 -1.266883,0.11131 -0.909639,0.0525 -3.286116,0.10005 -4.062599,0.11863 -4.818301,0.007 -9.668802,0.34163 -14.432843,-0.52504 -2.096787,-0.58196 -2.697704,-1.61788 -2.916888,-3.65499 0.07355,-0.16591 0.0991,-0.36298 0.220656,-0.49774 0.107887,-0.1196 0.566397,-0.30645 0.428977,-0.22243 -4.076344,2.49236 -8.185817,4.93062 -12.246737,7.44803 -0.147872,0.0917 0.323631,-0.18921 0.495691,-0.16344 0.730894,0.10949 1.718269,0.82339 2.274042,1.16536 1.752198,1.09194 3.321603,2.47447 5.087223,3.54468 1.135651,0.68836 1.401317,0.72415 2.671119,1.21672 3.974431,1.30506 8.217765,1.29035 12.352146,1.45513 3.031055,0.1208 6.062792,0.22387 9.094029,0.34001 5.404428,0.4256 10.789582,0.20182 16.174111,-0.30428 2.898303,-0.34456 5.810917,-0.48934 8.727373,-0.53875 3.008213,-0.0739 6.017809,-0.0761 9.026789,-0.0751 1.32668,0.006 2.65326,0.0246 3.97982,0.0422 0,0 11.93509,-8.66944 11.93509,-8.66944 v 0 c -1.36158,0.0147 -2.72317,0.0302 -4.08484,0.0337 -2.98641,-0.004 -5.97278,-0.0268 -8.95921,-0.017 -2.98205,0.0848 -5.97453,0.14611 -8.936336,0.52876 -5.544928,0.73143 -11.096178,1.27067 -16.701021,0.941 -6.818267,-0.14537 -13.832804,-0.0852 -20.447589,-1.92821 -0.860766,-0.30265 -1.653184,-0.54247 -2.461321,-0.96875 -1.819846,-0.95994 -3.424248,-2.321 -5.111344,-3.48144 -0.22892,-0.17375 -3.104644,-2.35228 -3.279535,-2.26337 -7.675391,3.902 -13.529642,3.18412 -13.381189,9.37084 0.476739,2.40532 1.626351,4.31416 4.111341,5.05936 4.859407,0.8589 9.796339,0.53141 14.709129,0.64743 0.251725,0.005 3.324813,0.068 3.821205,0.0871 0.384271,0.0147 0.819445,0.25992 1.151746,0.0664 4.463626,-2.59969 8.829475,-5.3775 13.058961,-8.34293 0.183569,-0.12871 -0.252508,-0.40623 -0.460303,-0.4904 -0.273363,-0.11072 -0.588782,-0.0359 -0.883173,-0.0538 -3.173083,-0.22521 -6.349031,-0.57024 -9.414647,-1.46222 -1.718064,-0.70989 -3.28029,-1.61176 -4.555089,-2.99286 -1.647497,-1.70935 -2.856176,-3.77481 -3.812665,-5.9398 -1.000944,-2.31709 -1.739056,-4.70546 -2.240913,-7.17862 -0.237041,-0.36124 -0.321772,-1.27107 -0.711122,-1.08374 -10.669225,5.13339 -12.4663,3.83198 -13.871532,11.00637 -0.291892,1.93159 -0.248728,3.87646 -0.228977,5.82632 -0.0016,1.54411 -0.01786,3.08985 0.152769,4.62772 0.174687,1.65286 0.451601,3.29318 0.572921,4.95176 0.384983,2.16864 1.206025,3.24577 3.479099,3.61763 3.592909,0.24061 7.206004,-0.0726 10.804617,0.0624 3.583256,0.0343 7.167643,-0.0487 10.75021,0.0663 2.313124,0.0208 4.626405,0.004 6.939561,0.0112 2.101581,-4.1e-4 4.207159,0.0321 6.303156,-0.14956 2.257594,-0.26297 4.481463,-0.70955 6.723966,-1.06774 1.849692,-0.35221 3.710019,-0.77375 5.600877,-0.77475 2.68251,-0.0179 5.36481,-0.0744 8.0422,-0.25446 3.129468,-0.24858 6.238998,-0.81125 9.156048,-2.0128 0.34128,-0.14763 2.57131,-0.93401 2.84197,-1.13295 0.26708,-0.19631 0.56661,-1.28315 0.30085,-0.71482 -0.0895,0.19129 -0.12329,0.40396 -0.18493,0.60594 -0.51064,1.5008 -1.09347,2.98202 -2.23637,4.12744 -0.39889,0.41298 -0.70884,0.76443 -1.16384,1.11687 -0.20533,0.15904 -0.8726,0.56277 -0.64669,0.43462 20.98666,-11.90478 14.99706,-8.47623 10.52165,-6.03593 -1.93665,0.58422 -3.94224,0.55813 -5.95019,0.52561 -2.0962,-0.0104 -4.19254,-0.018 -6.28859,0.0168 -3.19776,0.0427 -6.395568,0.0601 -9.593629,0.0554 -2.763101,-0.016 -5.525795,-0.0378 -8.288771,-0.0631 -3.582869,-0.0952 -7.176333,-0.29908 -10.697637,-1.01171 -2.742963,-0.67502 -5.288586,-1.8187 -7.787299,-3.13185 -2.456244,-1.18422 -4.904707,-2.38418 -7.333954,-3.62302 0,0 -12.380492,8.40004 -12.380492,8.40004 z" />
  <path
     style="fill:#ffff00;fill-opacity:1"
     id="path41024"
     d="m 75.031594,92.343809 c -0.533977,2.096098 -0.715453,4.25333 -0.853455,6.40502 -0.07244,2.689001 -0.105425,5.379111 -0.14084,8.068901 -0.03158,2.35168 0.01053,4.703 0.02428,7.0546 0.07074,3.13493 0.03601,6.27033 0.0381,9.40565 -0.09248,3.06597 0.389691,6.0974 0.810859,9.12248 0.425522,2.41859 0.52675,4.92764 1.17725,7.29766 0.539159,1.7869 1.153295,3.5538 1.968455,5.23449 0.645746,1.48578 1.160305,3.0858 1.355397,4.698 -4.919544,-2.22617 0.535749,0.35975 12.637336,-7.48025 0.259592,-0.16817 -0.361469,-0.50364 -0.512295,-0.77368 -0.242153,-0.43356 -0.463109,-0.87946 -0.664552,-1.33336 -0.612136,-1.37931 -0.979589,-2.50746 -1.489321,-3.94129 -1.097378,-3.88469 -2.125482,-7.8082 -2.8941,-11.77395 -0.582136,-3.21207 -0.638711,-6.4772 -0.71349,-9.72999 -0.126787,-3.91377 -0.110589,-7.81789 0.180692,-11.72238 0.591537,-3.437402 0.765154,-6.910753 1.081591,-10.377124 0.332844,-3.066977 0.608787,-6.137362 0.770002,-9.218104 0.07017,-0.982748 0.05536,-1.969564 0.102125,-2.953067 0.0093,-0.195774 0.221094,-0.677977 0.04801,-0.586024 -13.73465,7.296618 -12.918023,2.603809 -13.497434,9.109694 -0.433919,4.968366 -0.614992,9.951996 -0.769079,14.935205 -0.152517,4.52758 -0.183512,9.05819 -0.208339,13.58795 -0.0048,3.27734 -0.0628,6.55415 -0.09191,9.83127 -0.03206,2.14883 -0.02784,4.29791 -0.04801,6.44685 0.0162,2.37785 -0.327346,4.74376 -0.67354,7.0927 -0.694006,2.44632 -1.102868,4.9796 -1.823647,7.41583 -0.110834,-0.0356 -0.434799,-0.0513 -0.332501,-0.10691 4.442971,-2.41396 9.134369,-4.38022 13.447697,-7.01885 0.325696,-0.19924 -0.08408,-0.75919 -0.110463,-1.14008 -0.136837,-1.97567 -0.155317,-3.95732 -0.175125,-5.93655 0.05655,-4.60872 -0.02065,-9.21697 -0.05327,-13.82549 0.06364,-3.62069 -0.133327,-7.25414 0.0849,-10.87202 0.05836,-0.96743 0.380947,-3.87838 0.488371,-4.88129 0.361539,-3.20651 0.949911,-6.388477 1.527766,-9.563357 0.659201,-3.307934 0.960144,-6.669848 1.256989,-10.025455 0.112581,-1.211412 0.17261,-2.425477 0.213553,-3.640941 0,0 -13.190682,6.670337 -13.190682,6.670337 v 0 c -0.03205,1.173442 -0.05659,2.347321 -0.122414,3.519536 -0.215104,3.344949 -0.611194,6.67108 -1.391837,9.93683 -0.517131,3.15205 -0.916248,6.32852 -1.172041,9.51243 -0.434953,5.27068 -0.48984,10.54377 -0.4282,15.83075 -0.03983,4.63146 -0.134883,9.2627 -0.06893,13.89448 -0.01117,3.48048 0.0075,0.98705 -0.04489,4.3839 -0.0089,0.57903 -0.01634,1.1581 -0.02223,1.73717 -0.0046,0.4564 -0.442473,1.51337 -0.0094,1.36925 14.037131,-4.67141 14.730612,-1.1197 13.508815,-6.30716 0.37459,-2.51347 1.107619,-4.95159 1.618417,-7.43788 0.355663,-2.42995 0.675476,-4.87885 0.682669,-7.33825 -0.02066,-2.13221 -0.01711,-4.26459 -0.05291,-6.39664 -0.03458,-3.24259 -0.102071,-6.48478 -0.105462,-9.7277 -0.01585,-4.48741 -0.02951,-8.97498 0.05088,-13.461957 0.140846,-5.002946 0.348602,-10.020513 1.147789,-14.969274 0.08442,-0.527438 0.76201,-1.745064 0.253258,-1.582312 -14.309154,4.577557 -13.092665,1.718399 -13.206613,9.136821 -0.09489,3.024435 -0.30557,6.043753 -0.609216,9.054483 -0.329142,3.478709 -0.702538,6.950429 -1.076222,10.424619 -0.194528,3.94768 -0.165465,7.89843 -0.171887,11.85016 0.05101,3.32876 0.165322,6.68203 0.865945,9.94811 0.846623,3.99878 1.992972,7.93569 3.108989,11.86494 0.61145,1.9021 1.18265,3.81932 1.943235,5.66898 0.149682,0.36401 0.111882,1.22356 0.478187,1.07959 4.67667,-1.83811 9.128412,-4.21812 13.555461,-6.59533 0.181243,-0.0973 -0.110769,-0.39625 -0.166153,-0.59437 -0.409473,-1.70741 -0.851663,-3.41599 -1.60441,-5.01056 -0.758546,-1.59933 -1.320084,-3.28552 -1.876391,-4.96387 -0.582373,-2.32656 -0.784301,-4.74607 -1.17617,-7.10974 -0.450319,-2.95197 -0.922596,-5.90245 -0.771518,-8.90365 0.0016,-3.14775 -0.03344,-6.29553 0.03234,-9.44296 0.0093,-2.35576 0.04127,-4.71126 0.01229,-7.06702 -0.02045,-2.656568 -0.03892,-5.317733 0.179345,-7.967728 0.184506,-2.092804 0.418358,-4.206189 1.210078,-6.17201 0,0 -13.542123,6.359887 -13.542123,6.359887 z" />
  <path
     style="fill:#000000;fill-opacity:0"
     id="path41026"
     d="m 77.343165,98.832494 c 0.322946,4.473356 0.284638,8.966746 0.224893,13.448806 -0.248267,3.86973 0.167262,7.68829 0.640871,11.51899 0.601886,3.08871 1.254117,6.15765 1.618236,9.28621 0.210965,2.06589 0.242502,4.14278 0.23688,6.21742 0.111902,1.45766 -0.282191,2.85781 -0.487104,4.2879 -0.308428,0.7797 -0.533334,1.73845 -1.132935,2.36244 -0.13379,0.13923 -0.624248,0.45302 -0.458317,0.35427 4.060248,-2.41641 8.096517,-4.87289 12.144776,-7.30934 -0.08645,0.0964 -0.130264,0.27916 -0.259351,0.28915 -0.475597,0.0368 -0.959436,-1.05365 -1.007456,-1.15324 -0.858863,-1.78115 -1.044088,-3.7832 -1.328283,-5.70805 -0.60543,-6.24924 -0.697484,-12.54565 -0.547908,-18.81919 0.127491,-5.09576 0.441989,-10.1607 1.211272,-15.199154 0.680604,-3.3838 1.053029,-6.822751 1.851212,-10.181043 0.739413,-2.818833 1.486889,-5.70134 2.75022,-8.340892 0.102102,0.06308 0.413134,0.134539 0.306306,0.189232 -4.527296,2.317849 -9.260444,4.231376 -13.719495,6.677946 -0.27512,0.150952 -0.08903,0.621461 -0.146479,0.929969 -0.312601,1.678718 -0.611758,3.351443 -0.877409,5.039291 -0.583147,2.60224 -0.29621,1.28709 -0.859956,3.945637 0,0 13.040777,-6.299614 13.040777,-6.299614 v 0 c 0.587237,-2.681822 0.296809,-1.34186 0.871321,-4.019877 0.320967,-1.73176 0.726057,-3.421229 1.131415,-5.133551 0.08859,-0.374228 0.608104,-1.252437 0.244383,-1.127532 -14.010542,4.811332 -14.917208,0.996476 -13.521675,6.10456 -0.684066,2.814685 -1.771422,5.519134 -2.367752,8.357669 -0.780455,3.380803 -1.077139,6.848269 -1.698164,10.261139 -0.593981,5.04693 -0.749926,10.11325 -0.832524,15.19268 -0.10504,6.36108 0.07686,12.72628 0.49611,19.07456 0.281164,2.79258 0.502003,6.73453 2.777424,8.80451 0.23772,0.21626 0.563797,0.30862 0.845696,0.46292 6.976095,-4.15379 13.252081,-4.33736 14.467703,-11.32202 0.235626,-1.48593 0.460161,-2.96694 0.329589,-4.4783 -0.0568,-2.10569 -0.145001,-4.2139 -0.45788,-6.30004 -0.455083,-3.11283 -1.203467,-6.16866 -1.662898,-9.27975 -0.597483,-3.71638 -0.906194,-7.44791 -0.776974,-11.21785 -0.0616,-4.55872 -0.08911,-9.127348 0.224893,-13.67798 0,0 -13.271417,6.762124 -13.271417,6.762124 z" />
  <circle
     id="path41073"
     style="fill:#000000;stroke:#000000"
     cx="-253.28027"
     cy="0"
     r="0.84555542" />
  <circle
     id="path41075"
     style="fill:#000000;stroke:#000000"
     cx="-253.28027"
     cy="0"
     r="0.84555542" />
  <path
     style="fill:#000000;fill-opacity:1"
     id="path41077"
     d="m -260.18884,31.532161 c 7.0797,5.203606 13.08341,11.594994 18.71712,18.29107 4.19507,5.175609 7.77006,10.853283 10.4508,16.954417 1.15293,3.040522 1.77398,6.25359 2.44379,9.427568 0.0574,0.339482 0.11487,0.678963 0.1723,1.018444 0,0 32.54516,-17.543636 32.54516,-17.543636 v 0 c -0.10583,-0.352696 -0.21165,-0.705392 -0.31747,-1.058087 -1.04994,-3.270578 -2.11134,-6.558793 -3.68015,-9.625529 -0.54844,-0.940059 -2.25566,-3.886035 -2.78913,-4.713322 -2.80842,-4.355138 -6.4267,-8.098968 -9.91421,-11.903269 -3.55358,-3.946447 -7.07556,-7.908755 -10.39051,-12.060662 -1.95786,-2.452172 -2.9164,-3.625509 -4.41395,-6.206937 -0.28276,-0.487409 -0.49027,-1.014747 -0.7354,-1.52212 0,0 -32.08835,18.942063 -32.08835,18.942063 z" />
  <path
     style="fill:#000000;fill-opacity:1"
     id="path41079"
     d="m -405.64277,-97.281372 c 3.77318,4.817588 8.94907,8.282067 13.90455,11.755466 5.41473,3.795291 9.21697,6.260592 14.79606,9.959939 8.08665,5.388517 16.38073,10.538664 23.87163,16.764239 3.44129,2.859998 9.67976,8.761875 12.83183,12.114394 1.75431,1.865877 3.36401,3.862622 5.04601,5.793933 6.15833,7.178078 10.76576,15.399115 13.84029,24.311624 0.21443,0.767817 0.42887,1.535634 0.6433,2.303451 0,0 0.003,-0.0017 0.003,-0.0017 v 0 c -0.21444,-0.767818 -0.42889,-1.535637 -0.64333,-2.303456 -3.07466,-8.912511 -7.68215,-17.133557 -13.84057,-24.311618 -1.68202,-1.931311 -3.29174,-3.928058 -5.04606,-5.793934 -3.1519,-3.352316 -9.39083,-9.254592 -12.83189,-12.114402 -7.49091,-6.225571 -15.78502,-11.375705 -23.87165,-16.764258 -5.57834,-3.698889 -9.3819,-6.165099 -14.79596,-9.959985 -4.95538,-3.473386 -10.13115,-6.937897 -13.90417,-11.755494 0,0 -0.003,0.0018 -0.003,0.0018 z" />
  <path
     style="fill:#000000;fill-opacity:1"
     id="path41081"
     d="m -407.2839,-166.44407 c 4.88952,10.33295 8.58415,20.9648 11.60463,31.97763 1.48356,6.04084 2.43467,12.18867 3.42599,18.32291 0,0 0.003,-0.002 0.003,-0.002 v 0 c -0.99141,-6.13422 -1.94256,-12.28205 -3.4261,-18.32289 -3.02049,-11.01287 -6.71512,-21.64473 -11.60442,-31.97781 0,0 -0.003,0.002 -0.003,0.002 z" />
  <path
     style="fill:#000000;fill-opacity:1"
     id="path41083"
     d="m -409.04132,-118.37447 c 5.45317,11.64273 12.14633,22.659051 18.14134,34.023544 1.75879,3.334062 3.41729,6.720074 5.12594,10.080111 3.32777,6.854535 6.47867,13.788738 9.88124,20.606212 0,0 6.11534,-3.506229 6.11534,-3.506229 v 0 c -3.80998,-6.587249 -7.09591,-13.434011 -10.44646,-20.265803 -9.49301,-18.583993 -0.7397,-1.581489 -10.54977,-20.245922 -3.69788,-7.035503 -7.54706,-14.093153 -10.65849,-21.419313 -0.39556,-0.93137 -0.69869,-1.89934 -1.04804,-2.84902 0,0 -6.5611,3.57642 -6.5611,3.57642 z" />
  <path
     style="fill:#000000;fill-opacity:1"
     id="path41085"
     d="m 84.330586,152.46566 c -0.316872,-3.57943 -1.013156,-7.10618 -1.488691,-10.66526 -0.378271,-2.95988 -0.478642,-5.94377 -0.524752,-8.92417 -0.02065,-2.13861 -0.0085,-4.27736 -0.0025,-6.41601 -0.02095,-2.03241 0.510637,-4.02022 0.754652,-6.03382 0.147691,-1.97979 0.203285,-3.93297 0.565621,-5.88671 0.368473,-2.04207 0.445955,-4.08576 1.071511,-6.07126 0.786821,-2.21036 1.222125,-4.50423 1.46157,-6.83096 -0.02469,-0.95609 0.249638,-1.863218 0.471863,-2.780403 0,0 -6.731994,3.241913 -6.731994,3.241913 v 0 c -0.201849,0.94005 -0.395904,1.8826 -0.415474,2.8489 -0.264647,2.28744 -0.74727,4.52982 -1.511057,6.70688 -0.561464,2.01936 -0.65559,4.09839 -1.050159,6.15351 -0.333985,1.96466 -0.346936,3.94179 -0.552453,5.92147 -0.269889,2.03412 -0.767298,4.05197 -0.710284,6.11507 -0.0033,2.1399 -0.01006,4.28006 0.03263,6.41966 0.077,2.99772 0.212133,5.99902 0.614792,8.97336 0.492262,3.53506 1.242362,7.04405 1.353564,10.62187 0,0 6.661172,-3.39404 6.661172,-3.39404 z" />
  <path
     style="fill:#000000;fill-opacity:1"
     id="path41087"
     d="m 84.627739,153.96709 c -1.748514,-3.34948 -3.001343,-6.91402 -3.80582,-10.59895 -0.484635,-2.42425 -0.524708,-4.89894 -0.542903,-7.36126 -0.01408,-2.68745 0.01154,-5.37482 0.01571,-8.06224 0.07306,-2.47598 -0.123841,-4.96633 0.154362,-7.43048 0.440501,-2.69819 1.629607,-5.23869 2.530681,-7.81668 1.13609,-2.54077 2.215336,-5.07814 2.854667,-7.79303 0.492147,-2.11051 1.317757,-4.06888 2.292166,-5.989516 0.398286,-1.037738 0.646923,-2.122673 0.953156,-3.189477 0,0 -6.719632,3.187143 -6.719632,3.187143 v 0 c -0.30695,1.037687 -0.569655,2.09665 -1.034986,3.07876 -0.968374,1.95614 -1.68246,4.00585 -2.195914,6.12912 -0.681924,2.67738 -1.811312,5.17084 -2.865521,7.71678 -0.93283,2.61821 -2.126928,5.2135 -2.473907,7.98739 -0.214996,2.48842 -0.0536,4.99031 -0.106311,7.48583 -0.01359,2.69342 -0.02494,5.38698 -0.02891,8.08036 0.03332,2.50781 0.0898,5.02698 0.648563,7.48514 0.88613,3.72537 2.228515,7.306 3.872944,10.76458 0,0 6.45165,-3.67347 6.45165,-3.67347 z" />
  <path
     style="fill:#000000;fill-opacity:1"
     id="path41089"
     d="m 85.346934,153.73021 c -2.720599,-0.49287 -3.74063,-3.03536 -4.419779,-5.41707 -0.708588,-3.30973 -0.701878,-6.68145 -0.375038,-10.03079 0.36505,-2.75241 0.587896,-5.51516 0.682364,-8.28915 -0.0114,-2.77305 0.538316,-5.50721 0.830078,-8.25831 0.114513,-2.63616 0.948733,-5.13213 1.746691,-7.62049 0.819624,-2.43142 1.227233,-4.95441 1.426028,-7.50345 0.128899,-2.24434 0.09879,-4.49409 0.09672,-6.741123 0.04549,-2.152238 -0.131868,-4.313636 0.121964,-6.454184 0.635833,-3.427968 2.584965,-3.811613 -6.062648,2.474163 -0.197268,0.143391 -0.01151,0.487652 -0.02227,0.731291 -0.04422,1.001516 -0.09876,1.778076 -0.162939,2.796481 -0.295417,3.579492 -1.318017,7.056432 -1.927791,10.596682 -0.626546,3.44091 -1.534962,6.81839 -2.30486,10.22768 -0.401156,1.71872 -0.658516,3.46099 -0.885532,5.20901 0,0 6.627446,-3.26651 6.627446,-3.26651 v 0 c 0.237488,-1.72224 0.493096,-3.44181 0.892844,-5.13591 0.803782,-3.41842 1.699826,-6.81632 2.311624,-10.27731 0.609001,-3.56166 1.635792,-7.059052 1.902454,-10.666932 0.01776,-0.232586 0.383498,-3.950153 0.118563,-3.876395 -6.506243,1.811354 -6.631435,0.865713 -7.154332,4.498567 -0.195119,2.168873 -0.0626,4.3479 -0.08653,6.52371 0.0042,2.22968 0.01686,4.46208 -0.129935,6.68814 -0.216718,2.49313 -0.650111,4.95527 -1.459067,7.33155 -0.810923,2.5364 -1.595564,5.09054 -1.714443,7.77316 -0.293656,2.76111 -0.773464,5.50985 -0.788544,8.29322 -0.120074,2.75586 -0.354811,5.50114 -0.672342,8.24152 -0.28662,3.43517 -0.254216,6.89982 0.485251,10.28446 0.765096,2.59043 1.953003,5.37579 4.794739,6.16833 0,0 6.129274,-4.30034 6.129274,-4.30034 z" />
</svg>
