<?xml version="1.0" encoding="UTF-8"?>
<svg xmlns="http://www.w3.org/2000/svg" xmlns:xlink="http://www.w3.org/1999/xlink" width="1pt" height="1pt" viewBox="0 0 1 1" version="1.1">
<defs>
<linearGradient id="linear0" gradientUnits="userSpaceOnUse" x1="8.533174" y1="14.550207" x2="16.787146" y2="22.804178" gradientTransform="matrix(0.0416667,0,0,0.0416667,0,0)">
<stop offset="0" style="stop-color:rgb(0.392157%,0.392157%,0.392157%);stop-opacity:0.101961;"/>
<stop offset="1" style="stop-color:rgb(0.392157%,0.392157%,0.392157%);stop-opacity:0;"/>
</linearGradient>
<linearGradient id="linear1" gradientUnits="userSpaceOnUse" x1="1.020444" y1="7.152742" x2="22.644131" y2="17.236033" gradientTransform="matrix(0.0416667,0,0,0.0416667,0,0)">
<stop offset="0" style="stop-color:rgb(100%,100%,100%);stop-opacity:0.2;"/>
<stop offset="1" style="stop-color:rgb(100%,100%,100%);stop-opacity:0;"/>
</linearGradient>
<filter id="alpha" filterUnits="objectBoundingBox" x="0%" y="0%" width="100%" height="100%">
  <feColorMatrix type="matrix" in="SourceGraphic" values="0 0 0 0 1 0 0 0 0 1 0 0 0 0 1 0 0 0 1 0"/>
</filter>
<mask id="mask0">
  <g filter="url(#alpha)">
<rect x="0" y="0" width="1" height="1" style="fill:rgb(0%,0%,0%);fill-opacity:0.101961;stroke:none;"/>
  </g>
</mask>
<clipPath id="clip1">
  <rect x="0" y="0" width="1" height="1"/>
</clipPath>
<g id="surface5" clip-path="url(#clip1)">
<path style=" stroke:none;fill-rule:nonzero;fill:rgb(0.392157%,0.392157%,0.392157%);fill-opacity:1;" d="M 0.046875 0.554688 C 0.0546875 0.550781 0.0625 0.542969 0.0664062 0.535156 C 0.0585938 0.53125 0.0507812 0.527344 0.0429688 0.523438 C 0.0429688 0.535156 0.0429688 0.546875 0.046875 0.554688 Z M 0.046875 0.554688 "/>
</g>
<mask id="mask1">
  <g filter="url(#alpha)">
<rect x="0" y="0" width="1" height="1" style="fill:rgb(0%,0%,0%);fill-opacity:0.101961;stroke:none;"/>
  </g>
</mask>
<clipPath id="clip2">
  <rect x="0" y="0" width="1" height="1"/>
</clipPath>
<g id="surface8" clip-path="url(#clip2)">
<path style=" stroke:none;fill-rule:nonzero;fill:rgb(0.392157%,0.392157%,0.392157%);fill-opacity:1;" d="M 0.878906 0.40625 C 0.882812 0.464844 0.910156 0.515625 0.953125 0.558594 C 0.957031 0.539062 0.957031 0.519531 0.957031 0.5 C 0.957031 0.445312 0.949219 0.390625 0.929688 0.34375 C 0.914062 0.363281 0.898438 0.386719 0.878906 0.40625 Z M 0.878906 0.40625 "/>
</g>
<mask id="mask2">
  <g filter="url(#alpha)">
<rect x="0" y="0" width="1" height="1" style="fill:rgb(0%,0%,0%);fill-opacity:0.101961;stroke:none;"/>
  </g>
</mask>
<clipPath id="clip3">
  <rect x="0" y="0" width="1" height="1"/>
</clipPath>
<g id="surface11" clip-path="url(#clip3)">
<path style=" stroke:none;fill-rule:nonzero;fill:rgb(0.392157%,0.392157%,0.392157%);fill-opacity:1;" d="M 0.109375 0.546875 C 0.09375 0.566406 0.078125 0.585938 0.0585938 0.601562 C 0.0742188 0.664062 0.113281 0.710938 0.167969 0.75 C 0.167969 0.746094 0.167969 0.746094 0.167969 0.746094 C 0.167969 0.738281 0.171875 0.734375 0.175781 0.730469 C 0.238281 0.652344 0.363281 0.605469 0.5 0.605469 C 0.636719 0.605469 0.761719 0.652344 0.824219 0.730469 C 0.828125 0.734375 0.832031 0.738281 0.832031 0.746094 C 0.832031 0.75 0.828125 0.757812 0.828125 0.761719 C 0.890625 0.726562 0.925781 0.671875 0.945312 0.605469 C 0.890625 0.5625 0.855469 0.503906 0.839844 0.4375 C 0.726562 0.527344 0.554688 0.582031 0.363281 0.582031 C 0.273438 0.582031 0.1875 0.570312 0.109375 0.546875 Z M 0.109375 0.546875 "/>
</g>
</defs>
<g id="surface1">
<path style=" stroke:none;fill-rule:nonzero;fill:rgb(18.823529%,23.529412%,25.882353%);fill-opacity:1;" d="M 1 0.5 C 1 0.222656 0.777344 0 0.5 0 C 0.222656 0 0 0.222656 0 0.5 C 0 0.636719 0.0585938 0.738281 0.175781 0.800781 C 0.199219 0.960938 0.269531 1 0.5 1 C 0.726562 1 0.796875 0.964844 0.824219 0.816406 C 0.941406 0.753906 1 0.648438 1 0.5 Z M 1 0.5 "/>
<path style=" stroke:none;fill-rule:nonzero;fill:rgb(95.294118%,95.294118%,95.294118%);fill-opacity:1;" d="M 0.953125 0.558594 C 0.90625 0.511719 0.875 0.445312 0.875 0.375 C 0.875 0.339844 0.882812 0.304688 0.898438 0.273438 C 0.9375 0.339844 0.957031 0.417969 0.957031 0.5 C 0.957031 0.519531 0.957031 0.539062 0.953125 0.558594 Z M 0.953125 0.558594 "/>
<path style=" stroke:none;fill-rule:nonzero;fill:rgb(95.294118%,95.294118%,95.294118%);fill-opacity:1;" d="M 0.707031 0.292969 C 0.707031 0.40625 0.613281 0.5 0.5 0.5 C 0.386719 0.5 0.292969 0.40625 0.292969 0.292969 C 0.292969 0.175781 0.386719 0.0820312 0.5 0.0820312 C 0.613281 0.0820312 0.707031 0.175781 0.707031 0.292969 Z M 0.707031 0.292969 "/>
<path style=" stroke:none;fill-rule:nonzero;fill:rgb(95.294118%,95.294118%,95.294118%);fill-opacity:1;" d="M 0.101562 0.273438 C 0.117188 0.304688 0.125 0.339844 0.125 0.375 C 0.125 0.445312 0.0976562 0.507812 0.046875 0.554688 C 0.0429688 0.539062 0.0429688 0.519531 0.0429688 0.5 C 0.0429688 0.417969 0.0625 0.339844 0.101562 0.273438 Z M 0.101562 0.273438 "/>
<path style=" stroke:none;fill-rule:nonzero;fill:rgb(99.607843%,88.627451%,80%);fill-opacity:1;" d="M 0.5 0.957031 C 0.257812 0.957031 0.226562 0.917969 0.210938 0.75 C 0.269531 0.6875 0.378906 0.644531 0.5 0.644531 C 0.621094 0.644531 0.730469 0.6875 0.789062 0.75 C 0.773438 0.917969 0.742188 0.957031 0.5 0.957031 Z M 0.5 0.957031 "/>
<path style=" stroke:none;fill-rule:nonzero;fill:rgb(82.745098%,18.039216%,18.039216%);fill-opacity:1;" d="M 0.828125 0.761719 C 0.828125 0.757812 0.832031 0.75 0.832031 0.746094 C 0.832031 0.738281 0.828125 0.734375 0.824219 0.730469 C 0.761719 0.652344 0.636719 0.605469 0.5 0.605469 C 0.363281 0.605469 0.238281 0.652344 0.175781 0.730469 C 0.171875 0.734375 0.167969 0.738281 0.167969 0.746094 C 0.167969 0.746094 0.167969 0.746094 0.167969 0.75 C 0.113281 0.710938 0.0742188 0.664062 0.0585938 0.601562 C 0.125 0.546875 0.167969 0.464844 0.167969 0.375 C 0.167969 0.324219 0.152344 0.277344 0.128906 0.234375 C 0.207031 0.125 0.332031 0.0507812 0.472656 0.0429688 C 0.347656 0.0546875 0.25 0.164062 0.25 0.292969 C 0.25 0.429688 0.363281 0.542969 0.5 0.542969 C 0.636719 0.542969 0.75 0.429688 0.75 0.292969 C 0.75 0.164062 0.652344 0.0546875 0.527344 0.0429688 C 0.667969 0.0507812 0.792969 0.125 0.871094 0.234375 C 0.847656 0.277344 0.832031 0.324219 0.832031 0.375 C 0.832031 0.464844 0.875 0.546875 0.945312 0.605469 C 0.925781 0.671875 0.890625 0.726562 0.828125 0.761719 Z M 0.828125 0.761719 "/>
<path style=" stroke:none;fill-rule:nonzero;fill:rgb(95.294118%,95.294118%,95.294118%);fill-opacity:1;" d="M 0.953125 0.558594 C 0.90625 0.511719 0.875 0.445312 0.875 0.375 C 0.875 0.339844 0.882812 0.304688 0.898438 0.273438 C 0.9375 0.339844 0.957031 0.417969 0.957031 0.5 C 0.957031 0.519531 0.957031 0.539062 0.953125 0.558594 Z M 0.953125 0.558594 "/>
<path style=" stroke:none;fill-rule:nonzero;fill:rgb(82.745098%,18.039216%,18.039216%);fill-opacity:1;" d="M 0.828125 0.761719 C 0.828125 0.757812 0.832031 0.75 0.832031 0.746094 C 0.832031 0.738281 0.828125 0.734375 0.824219 0.730469 C 0.761719 0.652344 0.636719 0.605469 0.5 0.605469 C 0.363281 0.605469 0.238281 0.652344 0.175781 0.730469 C 0.171875 0.734375 0.167969 0.738281 0.167969 0.746094 C 0.167969 0.746094 0.167969 0.746094 0.167969 0.75 C 0.113281 0.710938 0.0742188 0.664062 0.0585938 0.601562 C 0.125 0.546875 0.167969 0.464844 0.167969 0.375 C 0.167969 0.324219 0.152344 0.277344 0.128906 0.234375 C 0.207031 0.125 0.332031 0.0507812 0.472656 0.0429688 C 0.347656 0.0546875 0.25 0.164062 0.25 0.292969 C 0.25 0.429688 0.363281 0.542969 0.5 0.542969 C 0.636719 0.542969 0.75 0.429688 0.75 0.292969 C 0.75 0.164062 0.652344 0.0546875 0.527344 0.0429688 C 0.667969 0.0507812 0.792969 0.125 0.871094 0.234375 C 0.847656 0.277344 0.832031 0.324219 0.832031 0.375 C 0.832031 0.464844 0.875 0.546875 0.945312 0.605469 C 0.925781 0.671875 0.890625 0.726562 0.828125 0.761719 Z M 0.828125 0.761719 "/>
<path style=" stroke:none;fill-rule:nonzero;fill:url(#linear0);" d="M 0.5 0.957031 C 0.742188 0.957031 0.773438 0.917969 0.789062 0.75 C 0.730469 0.6875 0.621094 0.644531 0.5 0.644531 C 0.378906 0.644531 0.269531 0.6875 0.210938 0.75 L 0.417969 0.957031 C 0.441406 0.957031 0.46875 0.957031 0.5 0.957031 Z M 0.5 0.957031 "/>
<path style=" stroke:none;fill-rule:nonzero;fill:rgb(18.823529%,23.529412%,25.882353%);fill-opacity:1;" d="M 0.386719 0.707031 C 0.371094 0.707031 0.355469 0.71875 0.355469 0.792969 C 0.355469 0.863281 0.371094 0.875 0.386719 0.875 C 0.402344 0.875 0.417969 0.863281 0.417969 0.792969 C 0.417969 0.71875 0.402344 0.707031 0.386719 0.707031 Z M 0.386719 0.707031 "/>
<path style=" stroke:none;fill-rule:nonzero;fill:rgb(18.823529%,23.529412%,25.882353%);fill-opacity:1;" d="M 0.613281 0.875 C 0.628906 0.875 0.644531 0.863281 0.644531 0.792969 C 0.644531 0.71875 0.628906 0.707031 0.613281 0.707031 C 0.597656 0.707031 0.582031 0.71875 0.582031 0.792969 C 0.582031 0.863281 0.597656 0.875 0.613281 0.875 Z M 0.613281 0.875 "/>
<path style=" stroke:none;fill-rule:nonzero;fill:url(#linear1);" d="M 1 0.5 C 1 0.222656 0.777344 0 0.5 0 C 0.222656 0 0 0.222656 0 0.5 C 0 0.636719 0.0585938 0.738281 0.175781 0.800781 C 0.199219 0.960938 0.269531 1 0.5 1 C 0.726562 1 0.796875 0.964844 0.824219 0.816406 C 0.941406 0.753906 1 0.648438 1 0.5 Z M 1 0.5 "/>
<use xlink:href="#surface5" mask="url(#mask0)"/>
<use xlink:href="#surface8" mask="url(#mask1)"/>
<use xlink:href="#surface11" mask="url(#mask2)"/>
</g>
</svg>
